<svg xmlns="http://www.w3.org/2000/svg" viewBox="0 0 1400 900" role="img" aria-labelledby="title desc" width="1400" height="900">
  <title id="title">退潮后滩涂纹路示意</title>
  <desc id="desc">由平行波状细线与留白构成的滩涂纹路示意，纯几何生成，不含任何摄影素材或位置信息。</desc>
  <rect width="1400" height="900" fill="#efece7" />
  <g stroke="#9a948b" stroke-width="1.5" fill="none">
    <path d="M-20 180 C 220 140, 420 220, 700 200 S 1180 130, 1420 190" />
    <path d="M-20 250 C 220 206, 420 292, 700 268 S 1180 196, 1420 258" />
    <path d="M-20 320 C 220 272, 420 364, 700 336 S 1180 262, 1420 326" />
    <path d="M-20 390 C 220 338, 420 436, 700 404 S 1180 328, 1420 394" />
    <path d="M-20 460 C 220 404, 420 508, 700 472 S 1180 394, 1420 462" />
    <path d="M-20 530 C 220 470, 420 580, 700 540 S 1180 460, 1420 530" />
    <path d="M-20 600 C 220 536, 420 652, 700 608 S 1180 526, 1420 598" />
    <path d="M-20 670 C 220 602, 420 724, 700 676 S 1180 592, 1420 666" />
  </g>
  <g stroke="#cfc9c0" stroke-width="1" fill="none">
    <path d="M-20 215 C 220 173, 420 256, 700 234 S 1180 163, 1420 224" />
    <path d="M-20 355 C 220 305, 420 400, 700 370 S 1180 295, 1420 360" />
    <path d="M-20 495 C 220 437, 420 544, 700 506 S 1180 427, 1420 496" />
    <path d="M-20 635 C 220 569, 420 688, 700 642 S 1180 559, 1420 632" />
  </g>
  <rect x="0" y="762" width="1400" height="1" fill="#cfc9c0" />
</svg>
